<mxfile host="app.diagrams.net" agent="Mozilla/5.0 (Windows NT 10.0; Win64; x64) AppleWebKit/537.36 (KHTML, like Gecko) Chrome/128.0.0.0 Safari/537.36 Edg/128.0.0.0" version="24.7.8">
  <diagram name="Page-1" id="EU_9g6YKppFDLxQ-yd42">
    <mxGraphModel dx="1042" dy="533" grid="1" gridSize="10" guides="1" tooltips="1" connect="1" arrows="1" fold="1" page="1" pageScale="1" pageWidth="850" pageHeight="1100" math="0" shadow="0">
      <root>
        <mxCell id="0" />
        <mxCell id="1" parent="0" />
        <mxCell id="SAXbf2U_s-x0KDOaSMLF-8" value="" style="edgeStyle=orthogonalEdgeStyle;rounded=0;orthogonalLoop=1;jettySize=auto;html=1;" parent="1" source="SAXbf2U_s-x0KDOaSMLF-1" edge="1">
          <mxGeometry relative="1" as="geometry">
            <mxPoint x="450" y="130" as="targetPoint" />
          </mxGeometry>
        </mxCell>
        <mxCell id="SAXbf2U_s-x0KDOaSMLF-1" value="start" style="rounded=1;whiteSpace=wrap;html=1;" parent="1" vertex="1">
          <mxGeometry x="390" y="30" width="120" height="60" as="geometry" />
        </mxCell>
        <mxCell id="SAXbf2U_s-x0KDOaSMLF-2" value="end" style="rounded=1;whiteSpace=wrap;html=1;arcSize=17;" parent="1" vertex="1">
          <mxGeometry x="390" y="730" width="120" height="60" as="geometry" />
        </mxCell>
        <mxCell id="0Gw7U9aOs5xz0O3_zmvB-9" value="" style="edgeStyle=orthogonalEdgeStyle;rounded=0;orthogonalLoop=1;jettySize=auto;html=1;" edge="1" parent="1" source="0Gw7U9aOs5xz0O3_zmvB-7" target="0Gw7U9aOs5xz0O3_zmvB-8">
          <mxGeometry relative="1" as="geometry" />
        </mxCell>
        <mxCell id="0Gw7U9aOs5xz0O3_zmvB-7" value="a: int = int(input)&lt;div&gt;type a number:&lt;/div&gt;" style="shape=card;whiteSpace=wrap;html=1;" vertex="1" parent="1">
          <mxGeometry x="370" y="130" width="160" height="100" as="geometry" />
        </mxCell>
        <mxCell id="0Gw7U9aOs5xz0O3_zmvB-8" value="b: int = int(input)&lt;div&gt;type another number:&lt;/div&gt;" style="shape=card;whiteSpace=wrap;html=1;" vertex="1" parent="1">
          <mxGeometry x="370" y="280" width="160" height="100" as="geometry" />
        </mxCell>
        <mxCell id="0Gw7U9aOs5xz0O3_zmvB-19" value="print(b)&lt;div&gt;print(a)&lt;/div&gt;" style="shape=document;whiteSpace=wrap;html=1;boundedLbl=1;" vertex="1" parent="1">
          <mxGeometry x="620" y="600" width="120" height="80" as="geometry" />
        </mxCell>
        <mxCell id="0Gw7U9aOs5xz0O3_zmvB-20" value="else&lt;div&gt;print(a)&lt;/div&gt;&lt;div&gt;print(b)&lt;/div&gt;" style="shape=document;whiteSpace=wrap;html=1;boundedLbl=1;" vertex="1" parent="1">
          <mxGeometry x="170" y="600" width="120" height="80" as="geometry" />
        </mxCell>
        <mxCell id="0Gw7U9aOs5xz0O3_zmvB-22" value="if&amp;nbsp;&lt;div&gt;a &amp;gt; b&lt;/div&gt;" style="rhombus;whiteSpace=wrap;html=1;" vertex="1" parent="1">
          <mxGeometry x="410" y="420" width="80" height="80" as="geometry" />
        </mxCell>
        <mxCell id="0Gw7U9aOs5xz0O3_zmvB-34" value="" style="endArrow=classic;html=1;rounded=0;entryX=-0.003;entryY=-0.015;entryDx=0;entryDy=0;entryPerimeter=0;" edge="1" parent="1" source="0Gw7U9aOs5xz0O3_zmvB-22" target="0Gw7U9aOs5xz0O3_zmvB-19">
          <mxGeometry width="50" height="50" relative="1" as="geometry">
            <mxPoint x="530" y="490" as="sourcePoint" />
            <mxPoint x="580" y="440" as="targetPoint" />
          </mxGeometry>
        </mxCell>
        <mxCell id="0Gw7U9aOs5xz0O3_zmvB-35" value="" style="endArrow=classic;html=1;rounded=0;exitX=0;exitY=1;exitDx=0;exitDy=0;entryX=1.017;entryY=0.035;entryDx=0;entryDy=0;entryPerimeter=0;" edge="1" parent="1" source="0Gw7U9aOs5xz0O3_zmvB-22" target="0Gw7U9aOs5xz0O3_zmvB-20">
          <mxGeometry width="50" height="50" relative="1" as="geometry">
            <mxPoint x="410" y="530" as="sourcePoint" />
            <mxPoint x="310" y="560" as="targetPoint" />
          </mxGeometry>
        </mxCell>
        <mxCell id="0Gw7U9aOs5xz0O3_zmvB-36" value="" style="endArrow=classic;html=1;rounded=0;entryX=0;entryY=0;entryDx=0;entryDy=0;" edge="1" parent="1" target="SAXbf2U_s-x0KDOaSMLF-2">
          <mxGeometry width="50" height="50" relative="1" as="geometry">
            <mxPoint x="290" y="670" as="sourcePoint" />
            <mxPoint x="340" y="720" as="targetPoint" />
          </mxGeometry>
        </mxCell>
        <mxCell id="0Gw7U9aOs5xz0O3_zmvB-37" value="" style="endArrow=classic;html=1;rounded=0;exitX=0.017;exitY=0.885;exitDx=0;exitDy=0;exitPerimeter=0;entryX=0.993;entryY=0.133;entryDx=0;entryDy=0;entryPerimeter=0;" edge="1" parent="1" source="0Gw7U9aOs5xz0O3_zmvB-19" target="SAXbf2U_s-x0KDOaSMLF-2">
          <mxGeometry width="50" height="50" relative="1" as="geometry">
            <mxPoint x="570" y="690" as="sourcePoint" />
            <mxPoint x="530" y="740" as="targetPoint" />
          </mxGeometry>
        </mxCell>
      </root>
    </mxGraphModel>
  </diagram>
</mxfile>
